<svg height="512" viewBox="0 0 256 256" width="512" xmlns="http://www.w3.org/2000/svg"><path d="m183.318 192.017h27.555a0 0 0 0 1 0 0v8.178a5 5 0 0 1 -5 5h-17.555a5 5 0 0 1 -5-5v-8.178a0 0 0 0 1 0 0z" fill="#f46275" transform="matrix(-1 0 0 -1 394.192 397.212)"/><path d="m205.874 192.017h-15.5a5 5 0 0 1 5 5v8.178h15.5v-8.178a5 5 0 0 0 -5-5z" fill="#f48875"/><path d="m183.318 99.672h27.555a0 0 0 0 1 0 0v8.178a5 5 0 0 1 -5 5h-17.555a5 5 0 0 1 -5-5v-8.178a0 0 0 0 1 0 0z" fill="#f46275"/><path d="m45.126 83.475 82.874-68.62 82.874 68.62z" fill="#63bce7"/><path d="m128 14.855-82.874 68.62h15.5l75.124-62.203z" fill="#6377e7"/><path d="m128 14.855 82.874 68.62h-15.5l-75.124-62.203z" fill="#63e2e7"/><rect fill="#63bce7" height="16.197" rx="8.098" width="203" x="26.5" y="83.475"/><path d="m42 91.574a8.122 8.122 0 0 1 8.1-8.1h-15.5a8.1 8.1 0 0 0 0 16.2h15.5a8.122 8.122 0 0 1 -8.1-8.1z" fill="#6377e7"/><path d="m214 91.574a8.122 8.122 0 0 0 -8.1-8.1h15.5a8.1 8.1 0 0 1 0 16.2h-15.5a8.122 8.122 0 0 0 8.1-8.1z" fill="#63e2e7"/><path d="m114.222 99.672h27.555a0 0 0 0 1 0 0v8.178a5 5 0 0 1 -5 5h-17.555a5 5 0 0 1 -5-5v-8.178a0 0 0 0 1 0 0z" fill="#f46275"/><path d="m114.222 192.017h27.555a0 0 0 0 1 0 0v8.178a5 5 0 0 1 -5 5h-17.555a5 5 0 0 1 -5-5v-8.178a0 0 0 0 1 0 0z" fill="#f46275" transform="matrix(-1 0 0 -1 256 397.212)"/><path d="m120.763 112.85h15v79.167h-15z" fill="#9e9e9e"/><path d="m45.126 99.672h27.556a0 0 0 0 1 0 0v8.178a5 5 0 0 1 -5 5h-17.556a5 5 0 0 1 -5-5v-8.178a0 0 0 0 1 0 0z" fill="#f46275"/><path d="m60.626 107.85v-8.178h-15.5v8.178a5 5 0 0 0 5 5h15.5a5 5 0 0 1 -5-5z" fill="#f43075"/><path d="m195.374 107.85v-8.178h15.5v8.178a5 5 0 0 1 -5 5h-15.5a5 5 0 0 0 5-5z" fill="#f48875"/><path d="m45.126 192.017h27.556a0 0 0 0 1 0 0v8.178a5 5 0 0 1 -5 5h-17.556a5 5 0 0 1 -5-5v-8.178a0 0 0 0 1 0 0z" fill="#f46275" transform="matrix(-1 0 0 -1 117.808 397.212)"/><path d="m65.626 192.017h-15.5a5 5 0 0 0 -5 5v8.178h15.5v-8.178a5 5 0 0 1 5-5z" fill="#f43075"/><path d="m51.667 112.85h15v79.167h-15z" fill="#707070"/><path d="m189.859 112.85h15v79.167h-15z" fill="#cecece"/><path d="m35.5 205.195h185v12.488h-185z" fill="#63bce7"/><path d="m205 205.195h15.5v12.488h-15.5z" fill="#63e2e7"/><path d="m35.5 205.195h15.5v12.488h-15.5z" fill="#6377e7"/><path d="m28.25 217.683h199.5v12.488h-199.5z" fill="#63bce7"/><path d="m212.25 217.683h15.5v12.489h-15.5z" fill="#63e2e7"/><path d="m28.25 217.683h15.5v12.489h-15.5z" fill="#6377e7"/><circle cx="128" cy="67.979" fill="#f8af23" r="31.692"/><path d="m141.422 67.964v9.212a2.528 2.528 0 0 1 -.807 1.868 2.643 2.643 0 0 1 -1.915.792h-8.1v6.489a2.54 2.54 0 0 1 -.791 1.884 2.58 2.58 0 0 1 -1.868.775 2.653 2.653 0 0 1 -1.931-.775 2.539 2.539 0 0 1 -.792-1.884v-6.554h-8.04a2.577 2.577 0 0 1 -1.872-.771 2.539 2.539 0 0 1 -.792-1.884 2.648 2.648 0 0 1 2.659-2.659h18.8v-3.83h-18.74a2.591 2.591 0 0 1 -1.883-.76 2.547 2.547 0 0 1 -.776-1.9v-9.18a2.649 2.649 0 0 1 2.659-2.659h7.977v-6.493a2.626 2.626 0 0 1 2.754-2.659 2.529 2.529 0 0 1 1.852.775 2.566 2.566 0 0 1 .775 1.884v6.489h8.167a2.645 2.645 0 0 1 1.915.791 2.531 2.531 0 0 1 .807 1.868 2.757 2.757 0 0 1 -2.722 2.722h-18.8v3.8h18.742a2.645 2.645 0 0 1 1.915.792 2.53 2.53 0 0 1 .807 1.867z" fill="#3f3679"/><circle cx="128" cy="145.667" fill="#f8af23" r="23.061"/><path d="m123.781 168.728h8.438a25.117 25.117 0 0 1 25.117 25.117v36.326a0 0 0 0 1 0 0h-58.672a0 0 0 0 1 0 0v-36.325a25.117 25.117 0 0 1 25.117-25.118z" fill="#f46275"/><g fill="#3f3679"><path d="m27.323 239.645h-18a1.5 1.5 0 1 0 0 3h18a1.5 1.5 0 0 0 0-3z"/><path d="m246.68 239.645h-18a1.5 1.5 0 0 0 0 3h18a1.5 1.5 0 1 0 0-3z"/><path d="m218.479 239.645h-180.958a1.5 1.5 0 0 0 0 3h180.958a1.5 1.5 0 0 0 0-3z"/><path d="m9.32 231.672h237.36a1.5 1.5 0 1 0 0-3h-17.43v-10.988a1.5 1.5 0 0 0 -1.5-1.5h-5.75v-10.989a1.5 1.5 0 0 0 -1.5-1.5h-8.126v-6.678a6.5 6.5 0 0 0 -6.015-6.475v-76.217a6.5 6.5 0 0 0 6.015-6.475v-6.678h9.026a9.6 9.6 0 1 0 0-19.2h-9.988l-82.455-68.272a1.5 1.5 0 0 0 -1.913 0l-82.458 68.275h-9.986a9.6 9.6 0 1 0 0 19.2h9.028v6.678a6.508 6.508 0 0 0 6.5 6.5h.04v76.167h-.04a6.508 6.508 0 0 0 -6.5 6.5v6.678h-8.128a1.5 1.5 0 0 0 -1.5 1.5v10.989h-5.75a1.5 1.5 0 0 0 -1.5 1.5v10.988h-17.43a1.5 1.5 0 1 0 0 3zm58.847-41.131v-76.216a6.5 6.5 0 0 0 6.015-6.475v-6.678h38.541v6.678a6.508 6.508 0 0 0 6.5 6.5h.041v8.368a24.552 24.552 0 0 0 -1.59 45.226 26.658 26.658 0 0 0 -20.509 25.9v9.849h-22.983v-6.678a6.5 6.5 0 0 0 -6.015-6.474zm72.111-89.369v6.678a3.5 3.5 0 0 1 -3.5 3.5h-17.556a3.5 3.5 0 0 1 -3.5-3.5v-6.678zm-42.47-33.193a30.192 30.192 0 1 1 30.192 30.193 30.227 30.227 0 0 1 -30.192-30.193zm84.011 33.192v6.678a6.508 6.508 0 0 0 6.5 6.5h.041v76.167h-.041a6.508 6.508 0 0 0 -6.5 6.5v6.678h-22.983v-9.849a26.658 26.658 0 0 0 -20.509-25.9 24.551 24.551 0 0 0 -1.064-45.019v-8.6a6.5 6.5 0 0 0 6.015-6.475v-6.678zm15.541 52.762a1.5 1.5 0 0 0 1.5-1.5v-38.083h4.5v76.167h-12v-76.167h4.5v38.083a1.5 1.5 0 0 0 1.499 1.501zm-90.92-8.266a21.561 21.561 0 1 1 21.56 21.562 21.586 21.586 0 0 1 -21.561-21.562zm27.824-31.317v7.568a24.442 24.442 0 0 0 -4.763-.762v-6.806zm-7.763 6.806a24.429 24.429 0 0 0 -4.237.633v-7.439h4.236zm-26.337 107.516v-34.826a23.644 23.644 0 0 1 23.617-23.617h8.438a23.644 23.644 0 0 1 23.617 23.617v34.826zm126.086 0h-67.414v-9.488h67.414zm-7.25-12.488h-60.164v-9.489h60.164zm-9.626-19.167v6.678h-24.556v-6.678a3.5 3.5 0 0 1 3.5-3.5h17.555a3.5 3.5 0 0 1 3.501 3.5zm0-89.167a3.5 3.5 0 0 1 -3.5 3.5h-17.556a3.5 3.5 0 0 1 -3.5-3.5v-6.678h24.555zm18.626-16.276a6.606 6.606 0 0 1 -6.6 6.6h-79.637a33.4 33.4 0 0 0 14.734-13.2h64.9a6.606 6.606 0 0 1 6.603 6.6zm-100-74.774 78.71 65.173h-48.623a33.192 33.192 0 1 0 -60.174 0h-48.623zm-99.821 76.274h54.321a1.5 1.5 0 0 0 0-3h-54.321a6.605 6.605 0 0 1 6.42-5.1h64.901a33.4 33.4 0 0 0 14.734 13.2h-79.634a6.605 6.605 0 0 1 -6.421-5.1zm18.447 14.776v-6.678h24.556v6.678a3.5 3.5 0 0 1 -3.5 3.5h-17.556a3.5 3.5 0 0 1 -3.5-3.5zm6.54 6.5h4.234v38.083a1.5 1.5 0 0 0 3 0v-38.083h4.763v76.167h-12zm-6.54 82.667a3.5 3.5 0 0 1 3.5-3.5h17.556a3.5 3.5 0 0 1 3.5 3.5v6.678h-24.556zm-9.626 9.678h60.164v9.489h-60.164zm-7.25 12.489h67.414v9.488h-67.414z"/><path d="m191.75 90.074h-32.058a1.5 1.5 0 0 0 0 3h32.058a1.5 1.5 0 0 0 0-3z"/><path d="m58.9 160.225a1.5 1.5 0 0 0 -1.5 1.5v9.125a1.5 1.5 0 0 0 3 0v-9.125a1.5 1.5 0 0 0 -1.5-1.5z"/><path d="m195.859 170.85a1.5 1.5 0 0 0 3 0v-9.125a1.5 1.5 0 0 0 -3 0z"/></g></svg>